HIERARCHY
ROOT mixamorig:Hips
{
	OFFSET 0.000000 96.227043 0.000000
	CHANNELS 6 Xposition Yposition Zposition Zrotation Yrotation Xrotation 
	JOINT mixamorig:Spine
	{
		OFFSET -0.000000 10.533499 -0.523275
		CHANNELS 3 Zrotation Yrotation Xrotation
		JOINT mixamorig:Spine1
		{
			OFFSET 0.000000 11.299546 -1.325292
			CHANNELS 3 Zrotation Yrotation Xrotation
			JOINT mixamorig:Spine2
			{
				OFFSET 0.000000 13.785172 -2.776498
				CHANNELS 3 Zrotation Yrotation Xrotation
				JOINT mixamorig:Neck
				{
					OFFSET 0.000000 10.127333 -2.861756
					CHANNELS 3 Zrotation Yrotation Xrotation
					JOINT mixamorig:Head
					{
						OFFSET -0.000000 13.647382 -1.413862
						CHANNELS 3 Zrotation Yrotation Xrotation
						JOINT mixamorig:HeadTop_End
						{
							OFFSET 0.000000 30.806381 7.007292
							CHANNELS 3 Zrotation Yrotation Xrotation
							JOINT mixamorig:HeadTop_End1
							{
								OFFSET 0.000000 2.676102 24.270611
								CHANNELS 3 Zrotation Yrotation Xrotation
								End Site
								{
									OFFSET 0.000000 0.000000 0.000000
								}
							}
						}
						JOINT mixamorig:Hair_Back
						{
							OFFSET 0.000000 4.645355 -17.237686
							CHANNELS 3 Zrotation Yrotation Xrotation
							End Site
							{
								OFFSET 0.000000 0.000000 0.000000
							}
						}
					}
				}
				JOINT mixamorig:LeftShoulder
				{
					OFFSET 15.012800 10.971772 -0.360322
					CHANNELS 3 Zrotation Yrotation Xrotation
					JOINT mixamorig:LeftArm
					{
						OFFSET 25.777773 -2.567700 -13.327240
						CHANNELS 3 Zrotation Yrotation Xrotation
						JOINT mixamorig:LeftForeArm
						{
							OFFSET 29.787109 -0.000004 -0.000004
							CHANNELS 3 Zrotation Yrotation Xrotation
							JOINT mixamorig:LeftHand
							{
								OFFSET 27.907402 0.000001 -0.000001
								CHANNELS 3 Zrotation Yrotation Xrotation
								JOINT mixamorig:LeftHandThumb1
								{
									OFFSET 4.385277 -3.294174 5.957924
									CHANNELS 3 Zrotation Yrotation Xrotation
									JOINT mixamorig:LeftHandThumb2
									{
										OFFSET 5.504555 -3.178055 3.178058
										CHANNELS 3 Zrotation Yrotation Xrotation
										JOINT mixamorig:LeftHandThumb3
										{
											OFFSET 5.079117 -2.932434 2.932431
											CHANNELS 3 Zrotation Yrotation Xrotation
											JOINT mixamorig:LeftHandThumb4
											{
												OFFSET 3.412636 -1.970291 1.970285
												CHANNELS 3 Zrotation Yrotation Xrotation
												End Site
												{
													OFFSET 0.000000 0.000000 0.000000
												}
											}
										}
									}
								}
								JOINT mixamorig:LeftHandIndex1
								{
									OFFSET 18.500992 -0.525558 5.209323
									CHANNELS 3 Zrotation Yrotation Xrotation
									JOINT mixamorig:LeftHandIndex2
									{
										OFFSET 3.245903 0.000000 0.000000
										CHANNELS 3 Zrotation Yrotation Xrotation
										JOINT mixamorig:LeftHandIndex3
										{
											OFFSET 3.816429 0.000000 0.000000
											CHANNELS 3 Zrotation Yrotation Xrotation
											JOINT mixamorig:LeftHandIndex4
											{
												OFFSET 3.831535 0.000000 0.000000
												CHANNELS 3 Zrotation Yrotation Xrotation
												End Site
												{
													OFFSET 0.000000 0.000000 0.000000
												}
											}
										}
									}
								}
								JOINT mixamorig:LeftHandMiddle1
								{
									OFFSET 18.527878 0.000000 0.000000
									CHANNELS 3 Zrotation Yrotation Xrotation
									JOINT mixamorig:LeftHandMiddle2
									{
										OFFSET 3.377342 0.000000 0.000000
										CHANNELS 3 Zrotation Yrotation Xrotation
										JOINT mixamorig:LeftHandMiddle3
										{
											OFFSET 4.504013 0.000000 0.000000
											CHANNELS 3 Zrotation Yrotation Xrotation
											JOINT mixamorig:LeftHandMiddle4
											{
												OFFSET 4.092804 0.000000 0.000000
												CHANNELS 3 Zrotation Yrotation Xrotation
												End Site
												{
													OFFSET 0.000000 0.000000 0.000000
												}
											}
										}
									}
								}
								JOINT mixamorig:LeftHandRing1
								{
									OFFSET 17.889069 0.120422 -4.218670
									CHANNELS 3 Zrotation Yrotation Xrotation
									JOINT mixamorig:LeftHandRing2
									{
										OFFSET 2.735115 0.000000 0.000000
										CHANNELS 3 Zrotation Yrotation Xrotation
										JOINT mixamorig:LeftHandRing3
										{
											OFFSET 3.330002 0.000000 0.000000
											CHANNELS 3 Zrotation Yrotation Xrotation
											JOINT mixamorig:LeftHandRing4
											{
												OFFSET 3.250610 0.000000 0.000000
												CHANNELS 3 Zrotation Yrotation Xrotation
												End Site
												{
													OFFSET 0.000000 0.000000 0.000000
												}
											}
										}
									}
								}
								JOINT mixamorig:LeftHandPinky1
								{
									OFFSET 16.228767 -0.608627 -7.594551
									CHANNELS 3 Zrotation Yrotation Xrotation
									JOINT mixamorig:LeftHandPinky2
									{
										OFFSET 2.688232 0.000000 0.000000
										CHANNELS 3 Zrotation Yrotation Xrotation
										JOINT mixamorig:LeftHandPinky3
										{
											OFFSET 2.487503 0.000000 0.000000
											CHANNELS 3 Zrotation Yrotation Xrotation
											JOINT mixamorig:LeftHandPinky4
											{
												OFFSET 1.853638 0.000000 0.000000
												CHANNELS 3 Zrotation Yrotation Xrotation
												End Site
												{
													OFFSET 0.000000 0.000000 0.000000
												}
											}
										}
									}
								}
							}
							JOINT mixamorig:Left_CapeC
							{
								OFFSET 15.866501 -8.490723 -6.837349
								CHANNELS 3 Zrotation Yrotation Xrotation
								JOINT mixamorig:Left_CapeC1
								{
									OFFSET 0.069977 -9.009132 -0.005505
									CHANNELS 3 Zrotation Yrotation Xrotation
									End Site
									{
										OFFSET 0.000000 0.000000 0.000000
									}
								}
							}
						}
						JOINT mixamorig:Left_CapeB
						{
							OFFSET 25.979805 -8.857712 -7.076626
							CHANNELS 3 Zrotation Yrotation Xrotation
							JOINT mixamorig:Left_CapeB1
							{
								OFFSET -0.021965 -8.484482 -0.004381
								CHANNELS 3 Zrotation Yrotation Xrotation
								End Site
								{
									OFFSET 0.000000 0.000000 0.000000
								}
							}
						}
						JOINT mixamorig:Left_CapeA
						{
							OFFSET 4.906307 -8.867569 -10.164864
							CHANNELS 3 Zrotation Yrotation Xrotation
							JOINT mixamorig:Left_CapeA1
							{
								OFFSET 0.065060 -8.702965 0.008343
								CHANNELS 3 Zrotation Yrotation Xrotation
								End Site
								{
									OFFSET 0.000000 0.000000 0.000000
								}
							}
						}
					}
				}
				JOINT mixamorig:RightShoulder
				{
					OFFSET -15.263000 11.005325 -0.581376
					CHANNELS 3 Zrotation Yrotation Xrotation
					JOINT mixamorig:RightArm
					{
						OFFSET -25.898201 -2.575595 -13.247862
						CHANNELS 3 Zrotation Yrotation Xrotation
						JOINT mixamorig:RightForeArm
						{
							OFFSET -29.683594 -0.000004 0.000004
							CHANNELS 3 Zrotation Yrotation Xrotation
							JOINT mixamorig:RightHand
							{
								OFFSET -27.552399 0.000001 0.000002
								CHANNELS 3 Zrotation Yrotation Xrotation
								JOINT mixamorig:RightHandThumb1
								{
									OFFSET -4.534866 -3.231049 6.198370
									CHANNELS 3 Zrotation Yrotation Xrotation
									JOINT mixamorig:RightHandThumb2
									{
										OFFSET -5.555481 -3.207458 3.207460
										CHANNELS 3 Zrotation Yrotation Xrotation
										JOINT mixamorig:RightHandThumb3
										{
											OFFSET -5.048988 -2.915039 2.915036
											CHANNELS 3 Zrotation Yrotation Xrotation
											JOINT mixamorig:RightHandThumb4
											{
												OFFSET -3.470932 -2.003937 2.003942
												CHANNELS 3 Zrotation Yrotation Xrotation
												End Site
												{
													OFFSET 0.000000 0.000000 0.000000
												}
											}
										}
									}
								}
								JOINT mixamorig:RightHandIndex1
								{
									OFFSET -18.647125 -0.520950 5.209499
									CHANNELS 3 Zrotation Yrotation Xrotation
									JOINT mixamorig:RightHandIndex2
									{
										OFFSET -3.257957 0.000000 0.000000
										CHANNELS 3 Zrotation Yrotation Xrotation
										JOINT mixamorig:RightHandIndex3
										{
											OFFSET -3.830109 0.000000 0.000000
											CHANNELS 3 Zrotation Yrotation Xrotation
											JOINT mixamorig:RightHandIndex4
											{
												OFFSET -4.076599 0.000000 0.000000
												CHANNELS 3 Zrotation Yrotation Xrotation
												End Site
												{
													OFFSET 0.000000 0.000000 0.000000
												}
											}
										}
									}
								}
								JOINT mixamorig:RightHandMiddle1
								{
									OFFSET -18.588463 0.000000 0.000002
									CHANNELS 3 Zrotation Yrotation Xrotation
									JOINT mixamorig:RightHandMiddle2
									{
										OFFSET -3.371826 0.000000 0.000000
										CHANNELS 3 Zrotation Yrotation Xrotation
										JOINT mixamorig:RightHandMiddle3
										{
											OFFSET -4.369202 0.000000 0.000000
											CHANNELS 3 Zrotation Yrotation Xrotation
											JOINT mixamorig:RightHandMiddle4
											{
												OFFSET -2.923546 0.000000 0.000000
												CHANNELS 3 Zrotation Yrotation Xrotation
												End Site
												{
													OFFSET 0.000000 0.000000 0.000000
												}
											}
										}
									}
								}
								JOINT mixamorig:RightHandRing1
								{
									OFFSET -17.879074 0.119339 -4.207394
									CHANNELS 3 Zrotation Yrotation Xrotation
									JOINT mixamorig:RightHandRing2
									{
										OFFSET -2.661499 0.000000 0.000000
										CHANNELS 3 Zrotation Yrotation Xrotation
										JOINT mixamorig:RightHandRing3
										{
											OFFSET -3.208199 0.000000 0.000000
											CHANNELS 3 Zrotation Yrotation Xrotation
											JOINT mixamorig:RightHandRing4
											{
												OFFSET -3.283501 0.000000 0.000000
												CHANNELS 3 Zrotation Yrotation Xrotation
												End Site
												{
													OFFSET 0.000000 0.000000 0.000000
												}
											}
										}
									}
								}
								JOINT mixamorig:RightHandPinky1
								{
									OFFSET -16.159256 -0.605835 -7.554152
									CHANNELS 3 Zrotation Yrotation Xrotation
									JOINT mixamorig:RightHandPinky2
									{
										OFFSET -2.525398 0.000000 0.000000
										CHANNELS 3 Zrotation Yrotation Xrotation
										JOINT mixamorig:RightHandPinky3
										{
											OFFSET -2.637398 0.000000 0.000000
											CHANNELS 3 Zrotation Yrotation Xrotation
											JOINT mixamorig:RightHandPinky4
											{
												OFFSET -1.991898 0.000000 0.000000
												CHANNELS 3 Zrotation Yrotation Xrotation
												End Site
												{
													OFFSET 0.000000 0.000000 0.000000
												}
											}
										}
									}
								}
							}
							JOINT mixamorig:Right_CapeC
							{
								OFFSET -14.979599 -8.655655 -7.313143
								CHANNELS 3 Zrotation Yrotation Xrotation
								JOINT mixamorig:Right_CapeC1
								{
									OFFSET -0.070480 -8.799957 0.005102
									CHANNELS 3 Zrotation Yrotation Xrotation
									End Site
									{
										OFFSET 0.000000 0.000000 0.000000
									}
								}
							}
						}
						JOINT mixamorig:Right_CapeB
						{
							OFFSET -25.495399 -8.714386 -7.336929
							CHANNELS 3 Zrotation Yrotation Xrotation
							JOINT mixamorig:Right_CapeB1
							{
								OFFSET -0.095078 -8.864182 0.012352
								CHANNELS 3 Zrotation Yrotation Xrotation
								End Site
								{
									OFFSET 0.000000 0.000000 0.000000
								}
							}
						}
						JOINT mixamorig:Right_CapeA
						{
							OFFSET -4.539398 -8.814468 -10.697832
							CHANNELS 3 Zrotation Yrotation Xrotation
							JOINT mixamorig:Right_CapeA1
							{
								OFFSET -0.031200 -8.864883 0.002108
								CHANNELS 3 Zrotation Yrotation Xrotation
								End Site
								{
									OFFSET 0.000000 0.000000 0.000000
								}
							}
						}
					}
				}
				JOINT mixamorig:Right_Peck
				{
					OFFSET -17.161200 -5.304504 25.131475
					CHANNELS 3 Zrotation Yrotation Xrotation
					End Site
					{
						OFFSET 0.000000 0.000000 0.000000
					}
				}
				JOINT mixamorig:Left_Peck
				{
					OFFSET 17.496799 -5.226059 25.131441
					CHANNELS 3 Zrotation Yrotation Xrotation
					End Site
					{
						OFFSET 0.000000 0.000000 0.000000
					}
				}
				JOINT mixamorig:Left_Collar
				{
					OFFSET 18.673000 8.701614 8.770367
					CHANNELS 3 Zrotation Yrotation Xrotation
					JOINT mixamorig:Left_Collar1
					{
						OFFSET 14.716171 10.417496 -1.192412
						CHANNELS 3 Zrotation Yrotation Xrotation
						End Site
						{
							OFFSET 0.000000 0.000000 0.000000
						}
					}
				}
				JOINT mixamorig:Right_Collar
				{
					OFFSET -18.575199 8.701584 8.780875
					CHANNELS 3 Zrotation Yrotation Xrotation
					JOINT mixamorig:Right_Collar1
					{
						OFFSET -14.819931 10.417496 -1.675122
						CHANNELS 3 Zrotation Yrotation Xrotation
						End Site
						{
							OFFSET 0.000000 0.000000 0.000000
						}
					}
				}
			}
		}
		JOINT mixamorig:Belly
		{
			OFFSET 0.000000 -7.186180 9.419335
			CHANNELS 3 Zrotation Yrotation Xrotation
			End Site
			{
				OFFSET 0.000000 0.000000 0.000000
			}
		}
	}
	JOINT mixamorig:LeftUpLeg
	{
		OFFSET 18.844400 -5.529315 -4.507404
		CHANNELS 3 Zrotation Yrotation Xrotation
		JOINT mixamorig:LeftLeg
		{
			OFFSET -0.093451 -32.082300 2.793235
			CHANNELS 3 Zrotation Yrotation Xrotation
			JOINT mixamorig:LeftFoot
			{
				OFFSET 0.093457 -31.984570 -5.636157
				CHANNELS 3 Zrotation Yrotation Xrotation
				JOINT mixamorig:LeftToeBase
				{
					OFFSET 1.077541 -26.551879 14.354875
					CHANNELS 3 Zrotation Yrotation Xrotation
					JOINT mixamorig:LeftToe_End
					{
						OFFSET 0.935007 0.313221 15.656780
						CHANNELS 3 Zrotation Yrotation Xrotation
						End Site
						{
							OFFSET 0.000000 0.000000 0.000000
						}
					}
				}
			}
		}
	}
	JOINT mixamorig:RightUpLeg
	{
		OFFSET -18.844400 -5.529311 -4.881217
		CHANNELS 3 Zrotation Yrotation Xrotation
		JOINT mixamorig:RightLeg
		{
			OFFSET 0.122213 -32.043598 3.234913
			CHANNELS 3 Zrotation Yrotation Xrotation
			JOINT mixamorig:RightFoot
			{
				OFFSET -0.122217 -31.792419 -5.571171
				CHANNELS 3 Zrotation Yrotation Xrotation
				JOINT mixamorig:RightToeBase
				{
					OFFSET -0.656431 -26.630018 14.273270
					CHANNELS 3 Zrotation Yrotation Xrotation
					JOINT mixamorig:RightToe_End
					{
						OFFSET -0.743732 0.071434 15.802410
						CHANNELS 3 Zrotation Yrotation Xrotation
						End Site
						{
							OFFSET 0.000000 0.000000 0.000000
						}
					}
				}
			}
		}
	}
}
MOTION
Frames: 4
Frame Time: 0.016667
0.079074 94.565155 4.555362 -3.250388 -7.489836 -3.318369 2.560651 1.544453 3.353480 1.410238 0.717413 1.130970 1.402730 0.758174 1.106372 0.470265 0.338891 5.598782 -0.264334 1.351713 -7.555282 0.000000 0.000000 0.000001 0.000000 0.000000 0.000000 0.000000 0.000000 0.000000 -14.991328 -23.834077 4.669913 -67.984354 -11.534474 24.905734 -5.842155 1.213002 -2.042104 -4.446444 -4.521540 -32.979144 4.815535 2.206939 -0.482117 23.271873 19.953200 19.882146 7.961493 5.550387 -13.145653 0.000003 -0.000001 -0.000002 -7.592323 -0.955380 0.147938 -17.376524 1.752975 -0.267899 -8.038812 0.821043 -0.057671 0.000002 -0.000000 0.000001 -15.718125 2.541478 -0.795338 -17.405227 1.755776 -0.268792 -18.413078 1.853964 -0.300507 0.000002 0.000001 0.000000 -21.166157 3.448950 -1.186770 -20.910460 2.094653 -0.386571 -17.867553 1.800887 -0.283115 0.000002 -0.000000 0.000001 -27.162521 5.367109 -1.716335 -17.405870 1.755850 -0.268789 -16.505528 1.667654 -0.241904 -0.000001 0.000000 0.000000 0.000000 0.000000 -0.000002 0.000000 0.000000 -0.000001 0.000001 0.000002 -0.000001 0.000000 0.000000 -0.000001 -0.000000 0.000001 -0.000003 0.000001 0.000000 -0.000002 12.653773 30.162753 1.104178 59.103637 8.243162 33.282954 6.352622 0.850615 -0.056995 6.558178 1.849560 -20.099868 -4.210301 -0.290962 -1.647606 -24.292712 -23.900870 22.248054 -11.360900 -6.733228 -14.485528 0.000005 0.000002 0.000003 6.830817 1.251024 0.187766 17.412934 -1.396488 -0.213863 8.059100 -0.654316 -0.046104 0.000001 0.000000 -0.000002 15.014240 -2.095989 -0.702592 17.437698 -1.398415 -0.214475 18.447097 -1.476610 -0.239763 -0.000002 0.000000 0.000000 20.489420 -2.894741 -1.047725 20.948506 -1.668278 -0.308446 17.897100 -1.434043 -0.225827 -0.000001 -0.000003 0.000001 26.502381 -4.706855 -1.510576 17.436027 -1.398259 -0.214434 16.532290 -1.327908 -0.192925 0.000000 -0.000001 0.000000 0.000000 0.000000 -0.000007 0.000000 0.000000 0.000000 0.000000 0.000001 0.000003 0.000001 -0.000001 -0.000000 0.000001 0.000001 0.000004 0.000001 0.000000 -0.000001 0.000000 0.000000 0.000001 0.000000 0.000000 0.000001 -0.000000 -0.000001 0.000001 0.000000 0.000000 0.000000 -0.000000 -0.000001 0.000003 0.000000 0.000000 0.000000 -0.000000 0.000001 -0.000001 2.329187 14.436369 -11.717365 4.683100 2.216200 12.875659 -2.351201 1.032891 2.717806 -0.000023 0.000000 -4.933274 0.000000 0.000003 0.000001 8.743884 -8.899860 -2.896758 -4.457143 -9.846833 6.721912 -1.977284 -1.337176 -1.680228 -0.000039 -0.000001 -7.273243 0.000000 0.000000 0.000000 
-0.013532 94.492340 4.608357 -2.899595 -7.331773 -3.312000 2.333739 1.563745 3.335757 1.350708 0.716066 1.127187 1.343324 0.756170 1.102919 0.459431 0.365157 5.489029 -0.268723 1.406644 -7.608388 0.000000 0.000000 0.000002 0.000000 0.000000 0.000000 0.000000 0.000000 0.000000 -15.096026 -23.869323 4.786577 -67.706612 -11.370595 24.709835 -5.876678 0.948702 -1.986635 -4.467192 -4.574756 -32.047227 4.861902 2.062387 -0.485049 22.679568 19.668580 19.454692 8.189058 5.519888 -13.210356 -0.000002 -0.000004 -0.000001 -7.267251 -0.983026 0.205823 -17.909453 1.804981 -0.284428 -9.085161 0.927033 -0.073660 0.000004 0.000000 -0.000001 -16.127137 2.584078 -0.823148 -18.307972 1.843748 -0.297135 -18.523645 1.864687 -0.304107 -0.000001 0.000000 0.000001 -22.177839 3.488161 -1.263988 -21.443442 2.145507 -0.406283 -17.950658 1.808977 -0.285743 0.000000 -0.000001 0.000000 -28.053636 5.411163 -1.912697 -18.322654 1.845161 -0.297612 -17.488283 1.763889 -0.271327 -0.000001 -0.000001 0.000000 0.000000 0.000000 0.000000 0.000000 0.000000 0.000000 0.000001 0.000001 0.000002 0.000001 0.000000 0.000000 0.000000 0.000001 0.000001 0.000000 -0.000001 -0.000002 12.707866 30.152486 1.316329 58.897698 8.161200 32.937736 6.352648 0.802932 -0.058742 6.564723 1.830864 -19.273477 -4.210317 -0.290907 -1.647608 -24.292480 -23.900724 22.247860 -11.360956 -6.733245 -14.485531 0.000001 0.000002 0.000000 7.465523 1.192960 0.195793 18.489351 -1.479846 -0.240890 9.167874 -0.743626 -0.059610 0.000001 0.000001 0.000001 15.598688 -2.137436 -0.737724 18.486699 -1.479642 -0.240825 19.625859 -1.567324 -0.271087 0.000002 0.000000 -0.000001 21.032126 -2.933048 -1.083741 22.025244 -1.749825 -0.340556 19.077839 -1.525210 -0.256314 0.000001 0.000000 0.000000 27.055067 -4.737807 -1.542260 18.488439 -1.479781 -0.240849 17.649946 -1.414898 -0.219669 -0.000001 -0.000003 0.000000 0.000000 0.000000 0.000000 0.000000 0.000000 0.000002 0.000001 -0.000000 0.000001 -0.000001 0.000000 0.000002 0.000000 0.000001 0.000001 0.000001 -0.000000 0.000001 0.000000 0.000000 0.000000 0.000000 0.000000 0.000000 0.000000 -0.000001 -0.000001 0.000000 0.000000 0.000000 0.000000 0.000000 0.000001 0.000000 0.000000 0.000000 0.000000 0.000000 -0.000001 2.008421 14.409497 -11.893803 4.676001 2.153755 13.149598 -2.396786 0.966937 2.566522 -0.000021 -0.000008 -4.913127 0.000000 0.000003 0.000000 8.420207 -8.716142 -3.948841 -4.855627 -9.973798 8.919090 -1.782535 -1.441724 -2.832855 -0.000037 -0.000013 -7.363851 0.000000 0.000000 -0.000001 
-0.111004 94.421043 4.666648 -2.547967 -7.163908 -3.317704 2.115218 1.577924 3.323340 1.288758 0.713854 1.123513 1.281500 0.753227 1.099593 0.445479 0.396389 5.420369 -0.286745 1.482683 -7.701794 0.000000 0.000000 0.000002 0.000000 0.000000 0.000000 0.000000 0.000000 0.000001 -15.190951 -23.905880 4.899183 -67.396483 -11.128309 24.446037 -5.897518 0.538208 -1.921949 -4.540039 -4.544155 -31.055307 4.906521 1.923575 -0.488143 22.079082 19.329970 19.013390 8.414107 5.446818 -13.290818 -0.000003 -0.000001 0.000001 -6.847377 -1.026634 0.262800 -18.381965 1.850942 -0.299508 -10.075901 1.027120 -0.090548 -0.000002 0.000000 0.000000 -16.476506 2.621312 -0.847132 -19.140584 1.924478 -0.324491 -18.603166 1.872402 -0.306703 0.000003 0.000002 0.000000 -23.156532 3.524646 -1.340074 -21.915980 2.190444 -0.424160 -18.003381 1.814116 -0.287393 0.000000 -0.000001 -0.000001 -28.902648 5.454646 -2.103994 -19.258255 1.935840 -0.328470 -18.490762 1.861496 -0.303040 0.000002 0.000001 0.000000 0.000001 0.000000 -0.000002 0.000000 0.000000 -0.000001 0.000001 0.000002 0.000001 0.000001 0.000001 0.000000 0.000001 -0.000000 0.000003 0.000001 0.000002 0.000002 12.768094 30.141589 1.516411 58.680186 8.060236 32.586285 6.352648 0.780051 -0.059575 6.532668 1.838824 -18.432352 -4.210303 -0.290964 -1.647607 -24.292823 -23.901048 22.248172 -11.360885 -6.733295 -14.485521 0.000002 -0.000002 -0.000001 8.187236 1.128514 0.198676 19.618564 -1.566735 -0.270905 10.285126 -0.833292 -0.074995 -0.000001 0.000000 0.000000 16.199077 -2.179135 -0.774215 19.550876 -1.561539 -0.269072 20.908398 -1.665251 -0.307267 -0.000001 0.000000 0.000000 21.532451 -2.972834 -1.117202 23.154756 -1.834683 -0.375886 20.365170 -1.623849 -0.291687 0.000003 -0.000001 0.000001 27.577057 -4.768842 -1.569119 19.560253 -1.562258 -0.269306 18.787299 -1.502842 -0.248632 -0.000001 0.000000 0.000001 0.000001 0.000000 -0.000001 0.000000 0.000001 0.000001 0.000001 0.000001 -0.000005 0.000000 0.000000 -0.000002 -0.000000 0.000001 -0.000004 0.000000 0.000000 0.000001 0.000000 0.000000 0.000000 0.000000 0.000000 -0.000002 0.000000 0.000000 0.000000 0.000000 0.000000 0.000000 0.000000 -0.000001 -0.000001 0.000000 0.000000 0.000000 0.000000 0.000000 0.000000 1.693642 14.407192 -12.049842 4.666447 2.089479 13.410466 -2.446287 0.866722 2.422425 -0.000024 -0.000005 -4.919202 0.000000 -0.000001 0.000000 8.108072 -8.567575 -4.881917 -5.214831 -10.014964 10.891592 -1.638830 -1.647611 -3.831455 -0.000037 0.000006 -7.429721 0.000000 -0.000002 0.000000 
-0.211938 94.348572 4.728176 -2.190980 -6.991610 -3.331155 1.897487 1.589127 3.313749 1.225407 0.711135 1.119548 1.218276 0.749739 1.095997 0.428781 0.430977 5.381426 -0.313181 1.574094 -7.821926 0.000000 0.000000 0.000000 0.000000 0.000000 0.000000 0.000000 0.000000 0.000000 -15.280476 -23.948790 5.016998 -67.086478 -10.898568 24.151745 -5.916944 0.166397 -1.843365 -4.635835 -4.529514 -30.009249 4.949963 1.788661 -0.491332 21.474903 18.952660 18.566362 8.637439 5.345178 -13.382468 0.000000 0.000001 0.000001 -6.363401 -1.081167 0.319013 -18.813666 1.892819 -0.313610 -11.029068 1.123114 -0.108430 -0.000001 -0.000001 0.000000 -16.785559 2.654919 -0.868444 -19.925817 2.000214 -0.351398 -18.661668 1.878085 -0.308610 0.000003 -0.000001 -0.000000 -24.112918 3.558942 -1.415647 -22.347665 2.231366 -0.440814 -18.035572 1.817239 -0.288430 0.000001 -0.000000 0.000001 -29.723283 5.497503 -2.291997 -20.206570 2.027207 -0.361257 -19.506653 1.959820 -0.336912 0.000001 -0.000000 0.000001 0.000000 0.000000 0.000004 0.000000 0.000000 -0.000004 -0.000000 0.000001 -0.000002 0.000001 0.000000 0.000000 0.000000 0.000000 -0.000002 0.000001 0.000001 0.000001 12.844445 30.114534 1.705534 58.477711 7.942355 32.232561 6.352671 0.773382 -0.059814 6.470679 1.858928 -17.569619 -4.210261 -0.291057 -1.647612 -24.293348 -23.901466 22.248641 -11.360818 -6.733358 -14.485517 0.000003 -0.000002 -0.000000 8.964949 1.060240 0.197839 20.781768 -1.655604 -0.303605 11.407757 -0.923092 -0.092205 -0.000002 -0.000003 0.000001 16.809697 -2.220833 -0.811789 20.624706 -1.643646 -0.299088 22.257968 -1.767378 -0.347688 -0.000001 0.000001 -0.000001 22.005400 -3.013504 -1.149098 24.318286 -1.921351 -0.414027 21.721291 -1.726883 -0.331323 -0.000000 -0.000004 0.000002 28.079123 -4.799849 -1.594985 20.644641 -1.645146 -0.299658 19.937467 -1.591177 -0.279677 0.000001 0.000001 -0.000001 0.000001 0.000000 -0.000001 0.000000 0.000001 0.000008 -0.000001 0.000001 -0.000001 -0.000001 0.000000 0.000000 -0.000002 0.000001 -0.000001 0.000000 0.000000 -0.000001 0.000000 0.000000 0.000000 0.000000 0.000000 0.000000 0.000000 0.000000 -0.000002 0.000000 0.000000 0.000000 0.000000 0.000000 0.000002 0.000000 0.000000 0.000000 0.000000 0.000000 -0.000001 1.378631 14.413580 -12.198791 4.656828 2.029682 13.676780 -2.498616 0.749694 2.278668 -0.000021 -0.000008 -4.939289 0.000000 0.000001 0.000001 7.788764 -8.446270 -5.685166 -5.526270 -10.010765 12.614841 -1.448815 -1.910009 -4.676660 -0.000037 -0.000009 -7.479191 0.000000 -0.000001 0.000000 
